HIERARCHY
ROOT newVegas:Hips
{
	OFFSET 0.000000 96.479958 0.000000
	CHANNELS 6 Xposition Yposition Zposition Xrotation Yrotation Zrotation
	JOINT newVegas:Pelvis
	{
		OFFSET 0.000000 0.000000 0.000000
		CHANNELS 3 Xrotation Yrotation Zrotation
		JOINT newVegas:LeftUpLeg
		{
			OFFSET 18.735201 -5.666702 -4.541200
			CHANNELS 3 Xrotation Yrotation Zrotation
			JOINT newVegas:LeftLeg
			{
				OFFSET -0.021200 -31.938179 0.493100
				CHANNELS 3 Xrotation Yrotation Zrotation
				JOINT newVegas:LeftFoot
				{
					OFFSET 0.021200 -31.938179 -4.336299
					CHANNELS 3 Xrotation Yrotation Zrotation
					JOINT newVegas:LeftToeBase
					{
						OFFSET 0.943001 -26.722000 15.023500
						CHANNELS 3 Xrotation Yrotation Zrotation
						End Site
						{
							OFFSET 0.000000 30.670183 0.000000
						}
					}
				}
				JOINT newVegas:Left_PantLeg
				{
					OFFSET 0.663870 -9.044666 -1.108900
					CHANNELS 3 Xrotation Yrotation Zrotation
					End Site
					{
						OFFSET 1.415995 20.635357 0.000000
					}
				}
			}
		}
		JOINT newVegas:RightUpLeg
		{
			OFFSET -18.735201 -5.666702 -4.541200
			CHANNELS 3 Xrotation Yrotation Zrotation
			JOINT newVegas:RightLeg
			{
				OFFSET 0.018946 -31.938133 0.493100
				CHANNELS 3 Xrotation Yrotation Zrotation
				JOINT newVegas:RightFoot
				{
					OFFSET -0.018946 -31.938126 -4.336299
					CHANNELS 3 Xrotation Yrotation Zrotation
					JOINT newVegas:RightToeBase
					{
						OFFSET -0.943001 -26.722004 15.023500
						CHANNELS 3 Xrotation Yrotation Zrotation
						End Site
						{
							OFFSET 0.000000 30.670187 0.000000
						}
					}
				}
				JOINT newVegas:Right_PantLeg
				{
					OFFSET -0.661674 -9.044716 -1.108900
					CHANNELS 3 Xrotation Yrotation Zrotation
					End Site
					{
						OFFSET -1.415958 20.635269 0.000000
					}
				}
			}
		}
	}
	JOINT newVegas:Spine
	{
		OFFSET 0.000000 10.199997 -0.299500
		CHANNELS 3 Xrotation Yrotation Zrotation
		JOINT newVegas:Spine1
		{
			OFFSET 0.000000 11.900002 -1.516600
			CHANNELS 3 Xrotation Yrotation Zrotation
			JOINT newVegas:Spine2
			{
				OFFSET 0.000000 13.600006 -2.842500
				CHANNELS 3 Xrotation Yrotation Zrotation
				JOINT newVegas:Neck
				{
					OFFSET 0.000000 9.624100 -2.890100
					CHANNELS 3 Xrotation Yrotation Zrotation
					JOINT newVegas:Head
					{
						OFFSET 0.000000 14.068802 -1.351900
						CHANNELS 3 Xrotation Yrotation Zrotation
						JOINT newVegas:Hair_Back
						{
							OFFSET 0.000000 3.231903 -17.524799
							CHANNELS 3 Xrotation Yrotation Zrotation
							End Site
							{
								OFFSET 0.000000 19.849884 0.000000
							}
						}
						JOINT newVegas:Hair_Front
						{
							OFFSET 0.000000 31.260406 4.573800
							CHANNELS 3 Xrotation Yrotation Zrotation
							JOINT newVegas:Hair_Front1
							{
								OFFSET 0.000000 2.284103 11.993300
								CHANNELS 3 Xrotation Yrotation Zrotation
								JOINT newVegas:Hair_Front2
								{
									OFFSET 0.000000 2.284103 11.993300
									CHANNELS 3 Xrotation Yrotation Zrotation
									End Site
									{
										OFFSET 0.000000 12.208862 0.000000
									}
								}
							}
						}
						JOINT newVegas:Jowel
						{
							OFFSET 0.000000 -7.458206 6.864100
							CHANNELS 3 Xrotation Yrotation Zrotation
							End Site
							{
								OFFSET 0.000000 19.849884 0.000000
							}
						}
					}
				}
				JOINT newVegas:LeftShoulder
				{
					OFFSET 15.263000 10.923401 -0.547700
					CHANNELS 3 Xrotation Yrotation Zrotation
					JOINT newVegas:LeftArm
					{
						OFFSET 25.438599 -2.830597 -13.032500
						CHANNELS 3 Xrotation Yrotation Zrotation
						JOINT newVegas:LeftForeArm
						{
							OFFSET 29.960503 0.000000 0.000000
							CHANNELS 3 Xrotation Yrotation Zrotation
							JOINT newVegas:LeftHand
							{
								OFFSET 27.849251 0.000000 0.000000
								CHANNELS 3 Xrotation Yrotation Zrotation
								JOINT newVegas:LeftHandThumb1
								{
									OFFSET 4.487587 -3.305161 6.305391
									CHANNELS 3 Xrotation Yrotation Zrotation
									JOINT newVegas:LeftHandThumb2
									{
										OFFSET 5.480453 -3.164139 3.164143
										CHANNELS 3 Xrotation Yrotation Zrotation
										JOINT newVegas:LeftHandThumb3
										{
											OFFSET 5.159721 -2.978973 2.978967
											CHANNELS 3 Xrotation Yrotation Zrotation
											End Site
											{
												OFFSET 2.494507 5.926697 1.738678
											}
										}
									}
								}
								JOINT newVegas:LeftHandIndex1
								{
									OFFSET 18.578728 -0.527832 5.208049
									CHANNELS 3 Xrotation Yrotation Zrotation
									JOINT newVegas:LeftHandIndex2
									{
										OFFSET 3.192009 0.000000 0.000000
										CHANNELS 3 Xrotation Yrotation Zrotation
										JOINT newVegas:LeftHandIndex3
										{
											OFFSET 3.835129 0.000000 0.000000
											CHANNELS 3 Xrotation Yrotation Zrotation
											End Site
											{
												OFFSET -0.034599 3.816971 0.371180
											}
										}
									}
								}
								JOINT newVegas:LeftHandMiddle1
								{
									OFFSET 18.476105 0.000000 0.000000
									CHANNELS 3 Xrotation Yrotation Zrotation
									JOINT newVegas:LeftHandMiddle2
									{
										OFFSET 3.324875 0.000000 0.000000
										CHANNELS 3 Xrotation Yrotation Zrotation
										JOINT newVegas:LeftHandMiddle3
										{
											OFFSET 4.596550 0.000000 0.000000
											CHANNELS 3 Xrotation Yrotation Zrotation
											End Site
											{
												OFFSET 0.057701 4.578827 0.399218
											}
										}
									}
								}
								JOINT newVegas:LeftHandRing1
								{
									OFFSET 17.732719 0.121887 -4.201567
									CHANNELS 3 Xrotation Yrotation Zrotation
									JOINT newVegas:LeftHandRing2
									{
										OFFSET 2.733170 0.000000 0.000000
										CHANNELS 3 Xrotation Yrotation Zrotation
										JOINT newVegas:LeftHandRing3
										{
											OFFSET 3.178268 0.000000 0.000000
											CHANNELS 3 Xrotation Yrotation Zrotation
											End Site
											{
												OFFSET 0.119102 3.170624 0.185394
											}
										}
									}
								}
								JOINT newVegas:LeftHandPinky1
								{
									OFFSET 15.989624 -0.606689 -7.535461
									CHANNELS 3 Xrotation Yrotation Zrotation
									JOINT newVegas:LeftHandPinky2
									{
										OFFSET 2.538986 0.000000 0.000000
										CHANNELS 3 Xrotation Yrotation Zrotation
										JOINT newVegas:LeftHandPinky3
										{
											OFFSET 2.593102 0.000000 0.000000
											CHANNELS 3 Xrotation Yrotation Zrotation
											End Site
											{
												OFFSET -0.150902 2.584198 0.152708
											}
										}
									}
								}
							}
							JOINT newVegas:Left_Sleeve
							{
								OFFSET 0.267448 -0.649796 0.577675
								CHANNELS 3 Xrotation Yrotation Zrotation
								End Site
								{
									OFFSET 0.000000 15.991241 0.000000
								}
							}
							JOINT newVegas:Left_CapeC
							{
								OFFSET 15.715958 -8.608795 -6.935905
								CHANNELS 3 Xrotation Yrotation Zrotation
								JOINT newVegas:Left_CapeC1
								{
									OFFSET 0.000000 -8.688499 0.000000
									CHANNELS 3 Xrotation Yrotation Zrotation
									End Site
									{
										OFFSET 0.000000 8.688499 0.000000
									}
								}
							}
						}
						JOINT newVegas:Left_CapeB
						{
							OFFSET 26.118385 -8.608795 -7.079235
							CHANNELS 3 Xrotation Yrotation Zrotation
							JOINT newVegas:Left_CapeB1
							{
								OFFSET 0.000000 -8.688499 0.000000
								CHANNELS 3 Xrotation Yrotation Zrotation
								End Site
								{
									OFFSET 0.000000 8.688499 0.000000
								}
							}
						}
						JOINT newVegas:Left_CapeA
						{
							OFFSET 5.115639 -8.608795 -10.395809
							CHANNELS 3 Xrotation Yrotation Zrotation
							JOINT newVegas:Left_CapeA1
							{
								OFFSET 0.000000 -8.688499 0.000000
								CHANNELS 3 Xrotation Yrotation Zrotation
								End Site
								{
									OFFSET 0.000000 8.688499 0.000000
								}
							}
						}
					}
				}
				JOINT newVegas:RightShoulder
				{
					OFFSET -15.263000 10.923401 -0.547700
					CHANNELS 3 Xrotation Yrotation Zrotation
					JOINT newVegas:RightArm
					{
						OFFSET -25.438599 -2.830597 -13.032500
						CHANNELS 3 Xrotation Yrotation Zrotation
						JOINT newVegas:RightForeArm
						{
							OFFSET -29.960503 0.000000 0.000000
							CHANNELS 3 Xrotation Yrotation Zrotation
							JOINT newVegas:RightHand
							{
								OFFSET -27.849251 0.000000 0.000000
								CHANNELS 3 Xrotation Yrotation Zrotation
								JOINT newVegas:RightHandThumb1
								{
									OFFSET -4.487587 -3.305161 6.305391
									CHANNELS 3 Xrotation Yrotation Zrotation
									JOINT newVegas:RightHandThumb2
									{
										OFFSET -5.480453 -3.164139 3.164143
										CHANNELS 3 Xrotation Yrotation Zrotation
										JOINT newVegas:RightHandThumb3
										{
											OFFSET -5.159721 -2.978973 2.978967
											CHANNELS 3 Xrotation Yrotation Zrotation
											End Site
											{
												OFFSET -2.494507 5.926697 1.738678
											}
										}
									}
								}
								JOINT newVegas:RightHandIndex1
								{
									OFFSET -18.578728 -0.527832 5.208049
									CHANNELS 3 Xrotation Yrotation Zrotation
									JOINT newVegas:RightHandIndex2
									{
										OFFSET -3.192009 0.000000 0.000000
										CHANNELS 3 Xrotation Yrotation Zrotation
										JOINT newVegas:RightHandIndex3
										{
											OFFSET -3.835129 0.000000 0.000000
											CHANNELS 3 Xrotation Yrotation Zrotation
											End Site
											{
												OFFSET 0.034599 3.816971 0.371180
											}
										}
									}
								}
								JOINT newVegas:RightHandMiddle1
								{
									OFFSET -18.476105 0.000000 0.000000
									CHANNELS 3 Xrotation Yrotation Zrotation
									JOINT newVegas:RightHandMiddle2
									{
										OFFSET -3.324875 0.000000 0.000000
										CHANNELS 3 Xrotation Yrotation Zrotation
										JOINT newVegas:RightHandMiddle3
										{
											OFFSET -4.596550 0.000000 0.000000
											CHANNELS 3 Xrotation Yrotation Zrotation
											End Site
											{
												OFFSET -0.057701 4.578827 0.399218
											}
										}
									}
								}
								JOINT newVegas:RightHandRing1
								{
									OFFSET -17.732719 0.121887 -4.201567
									CHANNELS 3 Xrotation Yrotation Zrotation
									JOINT newVegas:RightHandRing2
									{
										OFFSET -2.733170 0.000000 0.000000
										CHANNELS 3 Xrotation Yrotation Zrotation
										JOINT newVegas:RightHandRing3
										{
											OFFSET -3.178268 0.000000 0.000000
											CHANNELS 3 Xrotation Yrotation Zrotation
											End Site
											{
												OFFSET -0.119102 3.170624 0.185394
											}
										}
									}
								}
								JOINT newVegas:RightHandPinky1
								{
									OFFSET -15.989624 -0.606689 -7.535461
									CHANNELS 3 Xrotation Yrotation Zrotation
									JOINT newVegas:RightHandPinky2
									{
										OFFSET -2.538986 0.000000 0.000000
										CHANNELS 3 Xrotation Yrotation Zrotation
										JOINT newVegas:RightHandPinky3
										{
											OFFSET -2.593102 0.000000 0.000000
											CHANNELS 3 Xrotation Yrotation Zrotation
											End Site
											{
												OFFSET 0.150902 2.584198 0.152708
											}
										}
									}
								}
							}
							JOINT newVegas:Right_CapeC
							{
								OFFSET -15.715958 -8.608795 -6.935905
								CHANNELS 3 Xrotation Yrotation Zrotation
								JOINT newVegas:Right_CapeC1
								{
									OFFSET 0.000000 -8.688499 0.000000
									CHANNELS 3 Xrotation Yrotation Zrotation
									End Site
									{
										OFFSET 0.000000 8.688499 0.000000
									}
								}
							}
							JOINT newVegas:Right_Sleeve
							{
								OFFSET -0.267448 -0.649994 0.577675
								CHANNELS 3 Xrotation Yrotation Zrotation
								End Site
								{
									OFFSET 0.000000 15.991302 0.000000
								}
							}
						}
						JOINT newVegas:Right_CapeA
						{
							OFFSET -5.115540 -8.608795 -10.395824
							CHANNELS 3 Xrotation Yrotation Zrotation
							JOINT newVegas:Right_CapeA1
							{
								OFFSET 0.000000 -8.688499 0.000000
								CHANNELS 3 Xrotation Yrotation Zrotation
								End Site
								{
									OFFSET 0.000000 8.688499 0.000000
								}
							}
						}
						JOINT newVegas:Right_CapeB
						{
							OFFSET -26.118187 -8.608795 -7.079266
							CHANNELS 3 Xrotation Yrotation Zrotation
							JOINT newVegas:Right_CapeB1
							{
								OFFSET 0.000000 -8.688499 0.000000
								CHANNELS 3 Xrotation Yrotation Zrotation
								End Site
								{
									OFFSET 0.000000 8.688499 0.000000
								}
							}
						}
					}
				}
				JOINT newVegas:Left_Collar
				{
					OFFSET 18.625099 8.655502 8.828100
					CHANNELS 3 Xrotation Yrotation Zrotation
					JOINT newVegas:Left_Collar1
					{
						OFFSET 14.783401 10.540405 -1.259500
						CHANNELS 3 Xrotation Yrotation Zrotation
						End Site
						{
							OFFSET 0.000000 18.199875 0.000000
						}
					}
				}
				JOINT newVegas:Collar_Back
				{
					OFFSET 0.000000 15.630707 -20.132601
					CHANNELS 3 Xrotation Yrotation Zrotation
					End Site
					{
						OFFSET 0.000000 22.523010 0.000000
					}
				}
				JOINT newVegas:Left_Peck
				{
					OFFSET 17.239599 -5.132599 25.482599
					CHANNELS 3 Xrotation Yrotation Zrotation
					End Site
					{
						OFFSET 0.000000 22.523010 0.000000
					}
				}
				JOINT newVegas:Right_Peck
				{
					OFFSET -17.239599 -5.132202 25.482599
					CHANNELS 3 Xrotation Yrotation Zrotation
					End Site
					{
						OFFSET 0.000000 22.523010 0.000000
					}
				}
				JOINT newVegas:Right_Collar
				{
					OFFSET -18.625099 8.655792 8.828100
					CHANNELS 3 Xrotation Yrotation Zrotation
					JOINT newVegas:Right_Collar1
					{
						OFFSET -14.783401 10.539993 -1.259500
						CHANNELS 3 Xrotation Yrotation Zrotation
						End Site
						{
							OFFSET 0.000000 18.199631 0.000000
						}
					}
				}
			}
		}
		JOINT newVegas:Belly
		{
			OFFSET 0.000000 -6.540398 9.014299
			CHANNELS 3 Xrotation Yrotation Zrotation
			End Site
			{
				OFFSET 0.000000 11.566666 0.000000
			}
		}
	}
	JOINT newVegas:ElvisFacialAnim_Joint
	{
		OFFSET 1.000000 -95.330101 -8.825800
		CHANNELS 3 Xrotation Yrotation Zrotation
		End Site
		{
			OFFSET 0.000000 35.315800 0.000000
		}
	}
}
MOTION
Frames: 4
Frame Time: 0.033333
2.113959 84.218819 5.620319 -2.382883 6.839495 7.372565 0.000000 -0.000000 0.000001 -57.328899 -4.042688 2.791535 74.966367 5.328842 2.597965 21.522945 -1.077932 -7.602073 0.000000 0.000001 -0.000001 -0.000001 0.000000 -0.000000 -32.720243 -6.248006 6.932172 65.389670 -9.075553 -1.532336 -32.311282 -2.144859 -10.349661 -0.000000 0.000000 0.000000 -0.000000 -0.000001 -0.000002 3.160104 0.775582 1.101632 6.341500 1.109526 0.392057 6.342334 1.104383 0.393115 -5.142961 -3.596152 1.367597 -5.142957 -3.596151 1.367599 0.000000 -0.000000 -0.000001 -5.142959 -3.596148 1.367595 -5.142902 -3.596172 1.367608 -0.000000 0.000000 -0.000000 0.000000 -0.000000 -0.000001 0.581939 -1.366719 -9.315919 1.009666 -21.999536 -55.292454 0.000027 -60.728182 0.000038 -23.192384 -21.789169 19.137355 5.358071 -0.141382 9.666155 3.545735 27.155806 3.560559 0.000001 -0.000002 -0.000003 -1.578844 0.825929 -19.703494 0.405096 2.870999 -21.069192 0.000001 -0.000001 0.000001 0.409504 7.162235 -25.647939 0.416494 2.993233 -22.185325 -0.000000 0.000001 0.000000 2.386877 10.570815 -32.882337 0.471666 2.115260 -18.421978 -0.000001 -0.000001 0.000003 2.967942 13.388258 -36.938906 0.139978 1.667025 -18.441897 0.000000 -0.000005 0.000001 -0.000002 0.000003 -0.000000 -0.000002 0.000003 -0.000000 -0.000003 0.000003 -0.000000 0.000002 0.000000 0.000002 0.000002 -0.000001 0.000002 0.000002 0.000000 0.000002 0.000002 -0.000001 0.000002 0.602540 4.320551 7.824117 36.109530 28.975158 27.558606 -0.000049 83.838462 0.000072 -32.171557 17.421723 -9.154969 0.789346 -8.211556 -4.825418 0.020092 -13.361255 -9.371033 0.000000 0.000000 -0.000002 -1.070483 -2.247347 17.231261 0.405465 -2.871951 21.079304 -0.000001 -0.000002 -0.000000 0.438985 -7.256192 26.595146 0.417447 -2.995673 22.211543 0.000000 -0.000002 0.000000 2.698244 -11.184214 32.166107 0.472406 -2.116947 18.440365 0.000001 0.000001 0.000000 4.305375 -16.260319 34.920971 0.139808 -1.666330 18.434715 0.000001 0.000003 -0.000001 -0.000001 0.000002 0.000001 -0.000001 0.000002 0.000000 -0.000001 0.000002 0.000002 -0.000001 0.000002 -0.000000 -0.000001 0.000003 0.000001 -0.000001 0.000002 -0.000000 -0.000001 0.000003 0.000001 -0.000000 0.000000 -0.000000 -0.000000 0.000000 -0.000000 -0.000000 0.000000 -0.000000 -0.000000 0.000000 -0.000000 -0.000000 0.000000 -0.000000 -0.000000 0.000000 -0.000000 -0.000000 0.000000 -0.000000 -0.000000 -0.000001 -0.000000 0.000000 -0.000000 0.000001 
0.914776 84.806412 -5.376027 -5.281587 8.420895 9.321804 0.000000 -0.000000 -0.000001 -47.580867 -1.976876 4.134757 81.623056 6.657458 3.417111 18.138126 -0.413605 -4.002058 0.000002 0.000000 0.000001 -0.000000 -0.000002 -0.000000 -40.904149 -5.624789 4.237995 63.551400 -9.381736 -0.587049 -19.926530 -3.870025 -12.093505 -0.000000 -0.000000 0.000000 -0.000001 -0.000000 -0.000002 3.494444 -0.038889 -1.634114 6.989824 0.207623 0.375737 6.989876 0.166343 0.384443 -4.954495 -3.632233 1.495128 -4.954458 -3.632235 1.495140 0.000000 0.000000 -0.000000 -4.954510 -3.632228 1.495130 -4.954462 -3.632254 1.495138 -0.000001 0.000000 0.000000 0.000000 0.000000 -0.000000 0.584322 -3.082724 -8.582119 -8.792806 -28.992681 -52.109374 0.000017 -59.553936 0.000022 -23.023436 -26.798684 15.898303 5.358070 -0.141380 9.666156 3.545735 27.155808 3.560558 0.000001 -0.000001 -0.000001 -1.578840 0.825930 -19.703496 0.405094 2.870998 -21.069196 -0.000000 -0.000002 0.000002 0.409507 7.162235 -25.647939 0.416492 2.993233 -22.185325 0.000000 -0.000001 0.000002 2.386878 10.570820 -32.882341 0.471668 2.115257 -18.421976 0.000001 0.000001 0.000002 2.967943 13.388259 -36.938899 0.139976 1.667025 -18.441890 -0.000000 -0.000005 -0.000000 0.000001 0.000000 -0.000001 0.000001 0.000000 -0.000001 -0.000000 0.000000 -0.000001 0.000002 0.000001 -0.000000 0.000003 0.000001 -0.000003 0.000002 0.000001 -0.000000 0.000001 0.000001 -0.000000 0.604320 3.979829 6.356775 26.652373 19.582904 46.566737 -0.000154 85.624051 0.000157 -35.418636 17.928524 -13.527254 0.789345 -8.211555 -4.825414 0.020095 -13.361258 -9.371036 0.000000 0.000000 0.000001 -1.070482 -2.247347 17.231263 0.405466 -2.871954 21.079304 0.000000 0.000002 -0.000001 0.438987 -7.256191 26.595148 0.417449 -2.995669 22.211546 -0.000001 -0.000001 0.000002 2.698246 -11.184214 32.166107 0.472408 -2.116941 18.440365 -0.000001 0.000002 0.000000 4.305377 -16.260319 34.920975 0.139803 -1.666323 18.434708 0.000002 0.000002 -0.000001 0.000002 0.000003 -0.000002 0.000002 -0.000002 0.000001 0.000002 0.000002 0.000000 0.000001 0.000002 -0.000000 0.000001 0.000003 -0.000000 0.000001 0.000002 -0.000000 0.000001 0.000003 -0.000000 0.000001 -0.000000 -0.000000 0.000001 -0.000000 -0.000000 0.000001 -0.000000 -0.000000 0.000001 -0.000000 -0.000000 0.000001 -0.000000 -0.000000 0.000001 -0.000000 -0.000000 0.000001 -0.000000 -0.000000 -0.000000 -0.000001 -0.000000 0.000000 -0.000000 -0.000001 
0.291941 86.302269 -15.786585 -6.363394 12.256914 10.258042 -0.000000 -0.000001 -0.000000 -37.393121 -3.048910 3.463996 81.944450 4.563079 4.793977 14.680337 -0.223901 -5.714784 0.000001 0.000001 -0.000000 0.000000 0.000001 -0.000000 -44.234610 -4.651408 0.753999 52.931934 -9.387302 -0.059602 -6.313036 -6.365890 -11.590315 0.000000 -0.000000 -0.000000 0.000000 0.000000 0.000001 3.194298 -1.196008 -2.151289 6.474884 -1.545443 0.486426 6.461843 -1.586939 0.495246 -4.613480 -3.670992 1.511585 -4.613484 -3.670989 1.511579 0.000000 -0.000000 -0.000001 -4.613476 -3.670987 1.511581 -4.613340 -3.671010 1.511603 -0.000000 0.000000 0.000000 0.000000 -0.000000 -0.000000 0.594141 -4.265953 -8.585810 -13.837674 -33.531465 -47.373530 0.000011 -65.240833 0.000008 -22.638513 -30.178177 13.819142 5.358067 -0.141376 9.666158 3.545736 27.155804 3.560561 0.000001 -0.000001 -0.000001 -1.578844 0.825929 -19.703496 0.405095 2.870997 -21.069190 -0.000001 -0.000002 -0.000001 0.409504 7.162235 -25.647941 0.416497 2.993233 -22.185327 -0.000003 -0.000001 -0.000001 2.386879 10.570819 -32.882337 0.471670 2.115256 -18.421973 0.000002 0.000001 -0.000001 2.967939 13.388266 -36.938906 0.139975 1.667020 -18.441893 -0.000001 -0.000003 -0.000001 0.000004 0.000001 -0.000002 0.000004 0.000001 -0.000002 0.000004 0.000001 -0.000002 0.000000 0.000002 -0.000003 0.000001 0.000001 -0.000004 0.000000 0.000002 -0.000003 -0.000001 0.000002 -0.000004 0.554676 2.694287 3.912847 26.398476 2.921467 61.761391 -0.000362 93.013263 0.000325 -35.690737 18.093871 -17.982807 0.789349 -8.211552 -4.825413 0.020091 -13.361255 -9.371028 0.000003 -0.000002 -0.000001 -1.070484 -2.247348 17.231264 0.405468 -2.871949 21.079306 0.000000 -0.000001 0.000003 0.438990 -7.256187 26.595146 0.417447 -2.995670 22.211541 0.000003 0.000000 -0.000002 2.698246 -11.184212 32.166107 0.472408 -2.116945 18.440360 0.000001 -0.000001 0.000003 4.305376 -16.260319 34.920975 0.139808 -1.666329 18.434718 0.000002 0.000003 0.000001 -0.000001 0.000000 0.000002 -0.000001 -0.000000 0.000002 -0.000001 -0.000000 0.000003 -0.000000 -0.000003 0.000002 -0.000000 -0.000002 0.000002 -0.000000 -0.000003 0.000002 -0.000000 -0.000002 0.000002 0.000001 -0.000000 -0.000001 0.000001 -0.000000 -0.000001 0.000001 -0.000000 -0.000001 0.000001 -0.000000 -0.000001 0.000001 -0.000000 -0.000001 0.000001 -0.000000 -0.000001 0.000001 -0.000000 -0.000001 -0.000000 -0.000001 -0.000000 -0.000000 -0.000001 -0.000000 
0.017227 87.649467 -26.450193 -5.736166 16.416218 10.124067 -0.000000 -0.000000 0.000000 -29.056984 -6.231426 1.831198 77.533446 -1.329921 6.647024 12.938688 -0.170900 -12.427511 0.000001 -0.000003 0.000001 0.000002 -0.000003 -0.000000 -47.580918 -2.173630 -3.192104 42.985898 -9.759220 -0.775006 -1.773718 -6.766644 -6.256123 -0.000001 -0.000000 0.000000 0.000001 0.000000 -0.000000 2.599630 -2.300673 -1.102704 5.317937 -3.401938 0.456643 5.297423 -3.423685 0.461792 -4.332652 -3.716420 1.482971 -4.332656 -3.716422 1.482967 0.000000 0.000000 -0.000000 -4.332652 -3.716421 1.482972 -4.332647 -3.716433 1.482976 0.000000 0.000000 0.000000 0.000000 0.000000 -0.000000 0.591260 -4.678766 -9.009112 -17.091343 -34.963209 -43.056870 -0.000028 -74.440101 -0.000014 -21.346882 -31.211847 12.810350 5.358065 -0.141385 9.666156 3.545725 27.155808 3.560561 -0.000003 0.000000 -0.000001 -1.578844 0.825925 -19.703499 0.405095 2.870997 -21.069194 0.000002 -0.000001 -0.000002 0.409504 7.162228 -25.647937 0.416495 2.993228 -22.185336 0.000002 -0.000001 0.000001 2.386876 10.570816 -32.882341 0.471663 2.115260 -18.421976 0.000006 -0.000002 -0.000002 2.967935 13.388258 -36.938903 0.139979 1.667023 -18.441895 0.000001 -0.000003 -0.000002 -0.000001 0.000001 -0.000000 -0.000001 0.000001 -0.000000 -0.000002 0.000001 -0.000000 0.000000 -0.000002 0.000003 0.000002 -0.000003 0.000000 0.000000 -0.000002 0.000003 0.000000 -0.000002 0.000001 0.445281 1.404658 1.030121 33.104195 -10.384218 70.682390 0.000005 99.253468 -0.000032 -34.029085 18.997112 -21.265417 0.789345 -8.211553 -4.825414 0.020093 -13.361254 -9.371030 0.000001 0.000002 0.000001 -1.070484 -2.247346 17.231270 0.405469 -2.871948 21.079304 -0.000002 -0.000001 -0.000001 0.438986 -7.256190 26.595148 0.417446 -2.995672 22.211541 0.000001 0.000002 -0.000002 2.698243 -11.184214 32.166103 0.472407 -2.116947 18.440367 0.000000 -0.000001 0.000001 4.305371 -16.260322 34.920968 0.139805 -1.666327 18.434713 0.000001 0.000003 -0.000002 0.000000 0.000001 0.000001 0.000000 -0.000001 0.000001 0.000000 0.000000 -0.000000 0.000002 -0.000002 0.000001 0.000001 -0.000001 -0.000000 0.000002 -0.000002 0.000001 0.000001 -0.000001 -0.000000 0.000000 -0.000000 -0.000000 0.000000 -0.000000 -0.000000 0.000000 -0.000000 -0.000000 0.000000 -0.000000 -0.000000 0.000000 -0.000000 -0.000000 0.000000 -0.000000 -0.000000 0.000000 -0.000000 -0.000000 -0.000000 0.000001 0.000000 -0.000000 -0.000000 0.000000 
